<?xml version="1.0" encoding="UTF-8"?>
<svg width="170px" height="48px" viewBox="0 0 170 48" version="1.1" xmlns="http://www.w3.org/2000/svg" xmlns:xlink="http://www.w3.org/1999/xlink">
    <!-- Generator: Sketch 52.3 (67297) - http://www.bohemiancoding.com/sketch -->
    <title>logo/aksara-logo</title>
    <desc>Created with Sketch.</desc>
    <defs>
        <linearGradient x1="100%" y1="0%" x2="0%" y2="100%" id="linearGradient-1">
            <stop stop-color="#00CCE9" offset="0%"></stop>
            <stop stop-color="#1D6DCC" offset="39.0166614%"></stop>
            <stop stop-color="#0044AA" offset="100%"></stop>
        </linearGradient>
        <linearGradient x1="0%" y1="47.1469522%" x2="100%" y2="47.1469522%" id="linearGradient-2">
            <stop stop-color="#003CC1" offset="0%"></stop>
            <stop stop-color="#001B8A" offset="100%"></stop>
        </linearGradient>
        <linearGradient x1="50%" y1="0%" x2="50%" y2="100%" id="linearGradient-3">
            <stop stop-color="#2A90FF" offset="0%"></stop>
            <stop stop-color="#1D6DCC" offset="33.3325985%"></stop>
            <stop stop-color="#0044AA" offset="100%"></stop>
        </linearGradient>
    </defs>
    <g id="logo/aksara-logo" stroke="none" stroke-width="1" fill="none" fill-rule="evenodd">
        <g id="Group-2">
            <g id="word" transform="translate(60.000000, 10.000000)" fill="#2053AE" fill-rule="nonzero">
                <path d="M12.7272727,15.083871 L14,15.083871 L14,14.4516129 C14,10.2064516 11.8181818,8.76129032 8.72727273,8.76129032 C6.36363636,8.76129032 4.63636364,9.66451613 3.81818182,10.2064516 C3.45454545,10.4774194 3.18181818,10.3870968 2.90909091,10.0258065 L2.72727273,9.84516129 C2.45454545,9.48387097 2.45454545,9.12258065 2.81818182,8.94193548 C3.72727273,8.30967742 5.72727273,7.22580645 8.81818182,7.22580645 C13.1818182,7.22580645 15.5454545,9.66451613 15.5454545,14.3612903 L15.5454545,26.0129032 C15.5454545,26.4645161 15.2727273,26.6451613 14.9090909,26.6451613 L14.6363636,26.6451613 C14.1818182,26.6451613 14,26.3741935 14,26.0129032 L14,24.116129 C14,23.1225806 14.1818182,22.4 14.1818182,22.4 L14.0909091,22.4 C14.0909091,22.4 12.3636364,27.0967742 7.36363636,27.0967742 C4.27272727,27.0967742 0.909090909,25.3806452 0.909090909,21.5870968 C0.818181818,15.1741935 9.27272727,15.083871 12.7272727,15.083871 Z M7.45454545,25.6516129 C11.6363636,25.6516129 14,21.4064516 14,17.6129032 L14,16.6193548 L12.7272727,16.6193548 C9.45454545,16.6193548 2.54545455,16.6193548 2.54545455,21.5870968 C2.54545455,23.5741935 4.18181818,25.6516129 7.45454545,25.6516129 Z" id="Shape"></path>
                <path d="M23.6363636,0.722580645 C23.6363636,0.270967742 23.9090909,0.0903225806 24.2727273,0.0903225806 L24.5454545,0.0903225806 C25,0.0903225806 25.1818182,0.361290323 25.1818182,0.722580645 L25.1818182,15.1741935 L28.5454545,15.1741935 L34.4545455,8.03870968 C34.7272727,7.76774194 34.9090909,7.67741935 35.2727273,7.67741935 L35.8181818,7.67741935 C36.3636364,7.67741935 36.5454545,8.03870968 36.1818182,8.49032258 L29.9090909,15.8967742 L29.9090909,15.9870968 L36.9090909,25.9225806 C37.1818182,26.3741935 37,26.7354839 36.4545455,26.7354839 L35.9090909,26.7354839 C35.5454545,26.7354839 35.3636364,26.6451613 35.1818182,26.283871 L28.5454545,16.7096774 L25.1818182,16.7096774 L25.1818182,26.1032258 C25.1818182,26.5548387 24.9090909,26.7354839 24.5454545,26.7354839 L24.2727273,26.7354839 C23.8181818,26.7354839 23.6363636,26.4645161 23.6363636,26.1032258 L23.6363636,0.722580645 Z" id="Shape"></path>
                <path d="M41.9090909,23.9354839 L42.1818182,23.6645161 C42.4545455,23.3935484 42.7272727,23.3935484 43.0909091,23.6645161 C43.9090909,24.3870968 45.8181818,25.5612903 48.5454545,25.5612903 C50.9090909,25.5612903 52.9090909,24.3870968 52.9090909,21.9483871 C52.9090909,17.1612903 42.3636364,18.516129 42.3636364,12.283871 C42.3636364,8.94193548 45.2727273,7.13548387 48.4545455,7.13548387 C51.2727273,7.13548387 53,8.21935484 53.6363636,8.76129032 C53.9090909,9.03225806 54,9.30322581 53.8181818,9.66451613 L53.5454545,9.93548387 C53.2727273,10.2967742 53,10.2967742 52.6363636,10.0258065 C51.9090909,9.48387097 50.4545455,8.67096774 48.3636364,8.67096774 C46.2727273,8.67096774 44.0909091,9.66451613 44.0909091,12.1032258 C44.0909091,17.0709677 54.6363636,15.5354839 54.6363636,21.8580645 C54.6363636,24.9290323 52,27.0064516 48.5454545,27.0064516 C45.0909091,27.0064516 42.9090909,25.4709677 42.0909091,24.6580645 C41.6363636,24.5677419 41.6363636,24.2967742 41.9090909,23.9354839 Z" id="Shape"></path>
                <path d="M71.5454545,15.083871 L72.8181818,15.083871 L72.8181818,14.4516129 C72.8181818,10.2064516 70.6363636,8.76129032 67.5454545,8.76129032 C65.1818182,8.76129032 63.4545455,9.66451613 62.6363636,10.2064516 C62.2727273,10.4774194 62,10.3870968 61.7272727,10.0258065 L61.5454545,9.75483871 C61.2727273,9.39354839 61.2727273,9.03225806 61.6363636,8.8516129 C62.5454545,8.21935484 64.5454545,7.13548387 67.6363636,7.13548387 C72,7.13548387 74.3636364,9.57419355 74.3636364,14.2709677 L74.3636364,25.9225806 C74.3636364,26.3741935 74.0909091,26.5548387 73.7272727,26.5548387 L73.4545455,26.5548387 C73,26.5548387 72.8181818,26.283871 72.8181818,25.9225806 L72.8181818,24.0258065 C72.8181818,23.0322581 73,22.3096774 73,22.3096774 L72.9090909,22.3096774 C72.9090909,22.3096774 71.1818182,27.0064516 66.1818182,27.0064516 C63.0909091,27.0064516 59.7272727,25.2903226 59.7272727,21.4967742 C59.6363636,15.1741935 68.0909091,15.083871 71.5454545,15.083871 Z M66.2727273,25.6516129 C70.4545455,25.6516129 72.8181818,21.4064516 72.8181818,17.6129032 L72.8181818,16.6193548 L71.6363636,16.6193548 C68.3636364,16.6193548 61.4545455,16.6193548 61.4545455,21.5870968 C61.3636364,23.5741935 63,25.6516129 66.2727273,25.6516129 Z" id="Shape"></path>
                <path d="M82.4545455,8.4 C82.4545455,7.9483871 82.7272727,7.76774194 83.0909091,7.76774194 L83.3636364,7.76774194 C83.8181818,7.76774194 84,8.03870968 84,8.4 L84,11.3806452 C84,12.283871 83.8181818,12.916129 83.8181818,12.916129 L83.9090909,12.916129 C84.9090909,10.0258065 87.0909091,7.67741935 90.3636364,7.67741935 C90.9090909,7.67741935 91.1818182,7.9483871 91.1818182,8.30967742 L91.1818182,8.67096774 C91.1818182,9.12258065 90.8181818,9.30322581 90.3636364,9.30322581 C86.0909091,9.30322581 84.0909091,14.3612903 84.0909091,18.6064516 L84.0909091,26.1935484 C84.0909091,26.6451613 83.8181818,26.8258065 83.4545455,26.8258065 L83.1818182,26.8258065 C82.7272727,26.8258065 82.5454545,26.5548387 82.5454545,26.1935484 L82.5454545,8.4 L82.4545455,8.4 Z" id="Shape"></path>
                <path d="M106.545455,15.083871 L107.818182,15.083871 L107.818182,14.4516129 C107.818182,10.2064516 105.636364,8.76129032 102.545455,8.76129032 C100.181818,8.76129032 98.4545455,9.66451613 97.6363636,10.2064516 C97.2727273,10.4774194 97,10.3870968 96.7272727,10.0258065 L96.5454545,9.75483871 C96.2727273,9.39354839 96.2727273,9.03225806 96.6363636,8.8516129 C97.5454545,8.21935484 99.5454545,7.13548387 102.636364,7.13548387 C107,7.13548387 109.363636,9.57419355 109.363636,14.2709677 L109.363636,25.9225806 C109.363636,26.3741935 109.090909,26.5548387 108.727273,26.5548387 L108.454545,26.5548387 C108,26.5548387 107.818182,26.283871 107.818182,25.9225806 L107.818182,24.0258065 C107.818182,23.0322581 108,22.3096774 108,22.3096774 L107.909091,22.3096774 C107.909091,22.3096774 106.181818,27.0064516 101.181818,27.0064516 C98.0909091,27.0064516 94.7272727,25.2903226 94.7272727,21.4967742 C94.7272727,15.1741935 103.181818,15.083871 106.545455,15.083871 Z M101.272727,25.6516129 C105.454545,25.6516129 107.818182,21.4064516 107.818182,17.6129032 L107.818182,16.6193548 L106.636364,16.6193548 C103.363636,16.6193548 96.4545455,16.6193548 96.4545455,21.5870968 C96.3636364,23.5741935 98,25.6516129 101.272727,25.6516129 Z" id="Shape"></path>
            </g>
            <g id="logo/aksara">
                <g id="icon">
                    <path d="M31.3386204,1.27854754 C35.6795503,3.7550733 37.1988758,9.26320819 34.6811364,13.5757789 L17.1003701,43.5075817 C14.5826307,47.7774537 8.98283107,49.2719089 4.59849181,46.7953831 C0.257561844,44.3188573 -1.26176364,38.8107225 1.25597574,34.4981517 L18.8367421,4.56634898 C21.3544815,0.296476978 26.9542811,-1.19797822 31.3386204,1.27854754 Z" id="Shape" fill="url(#linearGradient-1)"></path>
                    <path d="M22.1358488,34.9678377 L32.6843087,16.9916765 L21.2242536,16.9916765 C21.2242536,16.9916765 21.1808443,16.9916765 21.1808443,16.9916765 C16.1887748,17.0343752 12.1083006,21.0053562 12.1083006,25.915709 C12.1083006,25.915709 12.1083006,25.9584077 12.1083006,25.9584077 C12.1083006,25.9584077 12.1083006,25.9584077 12.1083006,25.9584077 C12.1083006,26.1719013 12.1083006,26.1719013 12.1083006,25.9584077 C12.1083006,26.2572988 12.1083006,26.5561898 12.1517099,26.8123821 C12.3253471,28.6911258 13.1067145,30.3990746 14.2787656,31.7654337 L11.0664774,34.9251389 L22.1358488,34.9678377 Z" id="Shape" fill="url(#linearGradient-2)"></path>
                    <path d="M50.699168,34.4981517 L43.3195871,21.9020293 C41.8002616,18.9985164 38.7182013,16.9489778 35.1586387,16.9489778 L32.6843087,16.9489778 L22.1358488,34.9678377 L24.3497231,34.9678377 C24.4365417,34.9678377 24.479951,34.9678377 24.5667696,34.9678377 C27.9092857,34.9678377 30.8611181,36.7611839 32.4672622,39.4085045 C33.3788574,40.9883572 34.2470434,42.4401137 34.8547736,43.5075817 C37.372513,47.7774537 42.9723127,49.2719089 47.3566519,46.7953831 C51.6975819,44.3188573 53.1734981,38.8107225 50.699168,34.4981517 Z" id="Shape" fill="url(#linearGradient-3)"></path>
                </g>
            </g>
        </g>
    </g>
</svg>