<svg xmlns="http://www.w3.org/2000/svg" width="116" height="32" viewBox="0 0 116 32">
    <defs>
        <linearGradient id="a" x1="100%" x2="0%" y1="0%" y2="100%">
            <stop offset="0%" stop-color="#00CCE9"/>
            <stop offset="39.017%" stop-color="#1D6DCC"/>
            <stop offset="100%" stop-color="#04A"/>
        </linearGradient>
        <linearGradient id="b" x1="0%" y1="47.147%" y2="47.147%">
            <stop offset="0%" stop-color="#003CC1"/>
            <stop offset="100%" stop-color="#001B8A"/>
        </linearGradient>
        <linearGradient id="c" x1="50%" x2="50%" y1="0%" y2="100%">
            <stop offset="0%" stop-color="#2A90FF"/>
            <stop offset="33.333%" stop-color="#1D6DCC"/>
            <stop offset="100%" stop-color="#04A"/>
        </linearGradient>
    </defs>
    <g fill="none" fill-rule="evenodd">
        <g fill="#2053AE" fill-rule="nonzero">
            <path d="M51.485 16.723h.848V16.3c0-2.83-1.454-3.793-3.515-3.793a5.983 5.983 0 0 0-3.273.963c-.242.18-.424.12-.606-.12l-.12-.12c-.183-.242-.183-.483.06-.603.606-.422 1.94-1.144 4-1.144 2.909 0 4.485 1.626 4.485 4.757v7.768c0 .3-.182.421-.425.421h-.181c-.303 0-.425-.18-.425-.421v-1.265c0-.662.122-1.144.122-1.144h-.061s-1.152 3.131-4.485 3.131c-2.06 0-4.303-1.144-4.303-3.673-.06-4.275 5.576-4.335 7.879-4.335zm-3.515 7.045c2.788 0 4.363-2.83 4.363-5.36v-.662h-.848c-2.182 0-6.788 0-6.788 3.312 0 1.325 1.09 2.71 3.273 2.71zM58.758 7.148c0-.3.181-.421.424-.421h.182c.303 0 .424.18.424.421v9.635h2.242l3.94-4.757c.182-.18.303-.241.545-.241h.364c.363 0 .485.24.242.542l-4.182 4.938v.06l4.667 6.623c.182.301.06.542-.303.542h-.364c-.242 0-.363-.06-.484-.3l-4.425-6.384h-2.242v6.263c0 .3-.182.421-.424.421h-.182c-.303 0-.424-.18-.424-.421V7.149zM70.94 22.624l.181-.181c.182-.18.364-.18.606 0 .546.482 1.818 1.265 3.637 1.265 1.575 0 2.909-.783 2.909-2.41 0-3.19-7.03-2.287-7.03-6.442 0-2.228 1.939-3.432 4.06-3.432 1.879 0 3.03.722 3.455 1.084.181.18.242.36.12.602l-.181.18c-.182.241-.364.241-.606.06-.485-.36-1.455-.903-2.849-.903-1.394 0-2.848.663-2.848 2.288 0 3.312 7.03 2.289 7.03 6.504 0 2.047-1.757 3.432-4.06 3.432s-3.758-1.024-4.303-1.566c-.303-.06-.303-.24-.122-.481zM90.697 16.723h.848V16.3c0-2.83-1.454-3.793-3.515-3.793a5.983 5.983 0 0 0-3.272.963c-.243.18-.425.12-.606-.12l-.122-.181c-.182-.241-.182-.482.06-.602.607-.422 1.94-1.144 4-1.144 2.91 0 4.486 1.625 4.486 4.757v7.767c0 .301-.182.422-.424.422h-.182c-.303 0-.425-.18-.425-.422v-1.264c0-.662.122-1.144.122-1.144h-.06s-1.152 3.131-4.486 3.131c-2.06 0-4.303-1.144-4.303-3.673-.06-4.215 5.576-4.275 7.879-4.275zm-3.515 7.045c2.788 0 4.363-2.83 4.363-5.36v-.662h-.787c-2.182 0-6.788 0-6.788 3.312-.06 1.325 1.03 2.71 3.212 2.71zM97.97 12.267c0-.301.182-.422.424-.422h.182c.303 0 .424.18.424.422v1.987c0 .602-.121 1.023-.121 1.023h.06c.667-1.926 2.122-3.492 4.303-3.492.364 0 .546.18.546.421v.241c0 .301-.243.422-.546.422-2.848 0-4.181 3.372-4.181 6.202v5.058c0 .301-.182.422-.425.422h-.181c-.303 0-.425-.181-.425-.422V12.267h-.06zM114.03 16.723h.849V16.3c0-2.83-1.455-3.793-3.515-3.793a5.983 5.983 0 0 0-3.273.963c-.243.18-.424.12-.606-.12l-.121-.181c-.182-.241-.182-.482.06-.602.606-.422 1.94-1.144 4-1.144 2.91 0 4.485 1.625 4.485 4.757v7.767c0 .301-.182.422-.424.422h-.182c-.303 0-.424-.18-.424-.422v-1.264c0-.662.121-1.144.121-1.144h-.06s-1.152 3.131-4.485 3.131c-2.061 0-4.303-1.144-4.303-3.673 0-4.215 5.636-4.275 7.878-4.275zm-3.515 7.045c2.788 0 4.364-2.83 4.364-5.36v-.662h-.788c-2.182 0-6.788 0-6.788 3.312-.06 1.325 1.03 2.71 3.212 2.71z"/>
        </g>
        <path fill="url(#a)" d="M20.892.852c2.894 1.651 3.907 5.323 2.229 8.199L11.4 29.005c-1.68 2.847-5.412 3.843-8.335 2.192C.172 29.546-.841 25.874.837 22.999l11.72-19.955C14.238.198 17.97-.799 20.893.852z"/>
        <path fill="url(#b)" d="M14.757 23.312l7.033-11.984h-7.64-.03c-3.327.028-6.048 2.676-6.048 5.95v.028c0 .142 0 .142 0 0 0 .199 0 .398.03.569a5.907 5.907 0 0 0 1.417 3.302l-2.141 2.106 7.38.029z"/>
        <path fill="url(#c)" d="M33.8 22.999L28.88 14.6c-1.013-1.935-3.068-3.302-5.44-3.302h-1.65l-7.033 12.013h1.621a6.172 6.172 0 0 1 5.267 2.96c.608 1.054 1.186 2.021 1.592 2.733 1.678 2.847 5.411 3.843 8.334 2.192a5.995 5.995 0 0 0 2.228-8.198z"/>
    </g>
</svg>
