<svg xmlns="http://www.w3.org/2000/svg" width="284" height="300" viewBox="0 0 284 300">
    <defs>
        <linearGradient id="a" x1="50.006%" x2="50%" y1="100%" y2="0%">
            <stop offset="0%" stop-color="#003E80"/>
            <stop offset="51.379%" stop-color="#006FE6"/>
            <stop offset="100%" stop-color="#00CCE9"/>
            <stop offset="100%" stop-color="#00CCE9"/>
            <stop offset="100%" stop-color="#00CCE9"/>
        </linearGradient>
    </defs>
    <path fill="url(#a)" fill-rule="evenodd" d="M164.72 443.544l-1.526-1.076-5.443 7.753 7.752 5.46 1.072-1.528-6.226-4.383 4.37-6.226zm-117.642 6.652l4.822 7.07-7.057 4.817 1.183 1.735 8.787-6-6.004-8.805-1.73 1.183zm-9.501 153.27l-6.551-4.02a.869.869 0 0 0-.905 1.48l6.55 4.02a.866.866 0 0 0 1.194-.286.87.87 0 0 0-.288-1.194zm53.827 9.155a5.3 5.3 0 0 0-2.161-1.314c-1.461-.463-3.02-.28-4.388.516-.76.442-1.613.547-2.405.298-.79-.25-1.429-.827-1.8-1.625-.66-1.437-1.83-2.48-3.288-2.946-1.461-.463-3.02-.278-4.388.518a1.233 1.233 0 0 0 1.24 2.132c.761-.442 1.616-.548 2.408-.298.788.25 1.425.828 1.794 1.627.665 1.437 1.834 2.48 3.297 2.943 1.46.462 3.016.279 4.38-.516.763-.443 1.618-.549 2.41-.298.788.25 1.426.827 1.794 1.624a1.23 1.23 0 1 0 2.236-1.03 5.651 5.651 0 0 0-1.13-1.631zm156.237-36.81c-.682-.338-1.164-.905-1.362-1.592-.198-.69-.087-1.426.31-2.071.717-1.161.911-2.5.548-3.773a4.604 4.604 0 0 0-1.173-1.994 4.902 4.902 0 0 0-1.293-.925 1.062 1.062 0 0 0-1.426.481 1.07 1.07 0 0 0 .482 1.427c.683.338 1.166.905 1.365 1.595.196.688.085 1.422-.314 2.068-.715 1.163-.909 2.504-.544 3.777.367 1.273 1.241 2.31 2.464 2.915.684.338 1.167.906 1.365 1.594.196.69.086 1.423-.313 2.069a1.068 1.068 0 0 0 .346 1.465c.499.31 1.154.157 1.464-.344.717-1.16.912-2.501.547-3.773-.363-1.276-1.238-2.31-2.466-2.92zM133.602 323.518a2.11 2.11 0 0 1-.698 1.574c-.823.764-1.27 1.783-1.26 2.87.011 1.09.487 2.095 1.32 2.855a.874.874 0 0 0 1.236-.07c.321-.36.266-.892-.07-1.236-.464-.42-.73-.972-.735-1.564-.006-.588.243-1.145.7-1.57.822-.765 1.268-1.786 1.257-2.875-.012-1.09-.486-2.096-1.317-2.85-.473-.422-.729-.974-.735-1.565-.006-.588.242-1.146.7-1.569a.876.876 0 0 0 .045-1.238l-.023-.025a.875.875 0 0 0-1.214-.023c-.822.762-1.268 1.782-1.258 2.87.01 1.09.48 2.086 1.32 2.856.463.423.725.971.732 1.56zM294.846 494.34l5.709-1.139 4.348 3.892-5.71 1.139-4.347-3.892zm6.127-2.688l-9.224 1.84 7.026 6.289 9.225-1.84-7.027-6.289zm-119.906 54.15l6.105 5.084-.393 7.933-6.103-5.083.391-7.933zm-2.392 8.811l9.863 8.216.634-12.82-9.864-8.215-.633 12.82zm-49.622-46.654a5.718 5.718 0 0 1-3.249 2.983 5.725 5.725 0 0 1-4.404-.195 5.747 5.747 0 0 1-1.642-1.15 5.796 5.796 0 0 1-1.152-6.515 5.758 5.758 0 0 1 9.294-1.64 5.798 5.798 0 0 1 1.153 6.517zm-1.712-9.995a8.318 8.318 0 0 0-11.065 4.03 8.356 8.356 0 0 0 1.666 9.423 8.347 8.347 0 0 0 2.375 1.661 8.316 8.316 0 0 0 11.065-4.03c1.518-3.266.74-7.014-1.666-9.423a8.336 8.336 0 0 0-2.375-1.661zm9.737-83.871a3.516 3.516 0 0 1-4.777 1.385 3.492 3.492 0 0 1-.796-.596 3.545 3.545 0 0 1-.595-4.188 3.516 3.516 0 0 1 5.573-.788 3.544 3.544 0 0 1 .595 4.187zm-.635-6.16a5.081 5.081 0 0 0-6.909 2.003 5.105 5.105 0 0 0 2.011 6.919 5.08 5.08 0 0 0 6.909-2.003 5.103 5.103 0 0 0-2.011-6.92zM27.818 460.886a3.205 3.205 0 0 1-2.05-4.055 3.195 3.195 0 0 1 1.6-1.867 3.19 3.19 0 0 1 2.451-.188c.484.16.912.422 1.269.78a3.215 3.215 0 0 1-3.27 5.33zm5.413-1.608a4.65 4.65 0 0 0-1.13-4.737 4.642 4.642 0 0 0-7.694 1.843 4.651 4.651 0 0 0 2.965 5.864c2.437.8 5.06-.53 5.859-2.97zm1.056-60.147a5.156 5.156 0 0 1-3.823 1.105 5.219 5.219 0 0 1-4.597-5.753l-1.824-.206c-.426 3.86 2.365 7.352 6.22 7.786a6.977 6.977 0 0 0 5.171-1.496 6.989 6.989 0 0 0 2.595-4.72l-1.825-.204a5.156 5.156 0 0 1-1.917 3.488zm177.578-12.094a6.78 6.78 0 0 0-4.533 2.613 6.797 6.797 0 0 0-1.356 5.06 6.796 6.796 0 0 0 2.617 4.542l1.086-1.415a5.026 5.026 0 0 1-1.933-3.357 5.022 5.022 0 0 1 1.001-3.74 5.013 5.013 0 0 1 3.352-1.932 5.018 5.018 0 0 1 3.735 1.008l1.088-1.415a6.794 6.794 0 0 0-5.057-1.364z" transform="translate(-24 -316)"/>
</svg>
