<svg xmlns="http://www.w3.org/2000/svg" width="275" height="199" viewBox="0 0 275 199">
    <path fill="#102A59" fill-rule="evenodd" d="M180.585 84.01l-11.646.68a1.317 1.317 0 0 0-1.24 1.39 1.316 1.316 0 0 0 1.316 1.236h.079l11.645-.681a1.317 1.317 0 0 0 1.24-1.39 1.32 1.32 0 0 0-1.394-1.235zm-23.611 32.886a.79.79 0 0 0-1.442.639l2.832 6.353a.79.79 0 0 0 1.442-.639l-2.832-6.353zm-137.98 21.803c-1.066.164-2.081-.1-2.868-.736-.784-.635-1.25-1.571-1.31-2.64-.11-1.92-.971-3.622-2.423-4.796-1.452-1.172-3.301-1.656-5.21-1.372-1.062.163-2.082-.099-2.87-.736-.784-.635-1.248-1.57-1.307-2.637a1.503 1.503 0 0 0-1.586-1.413 1.501 1.501 0 0 0-1.418 1.58c.108 1.918.965 3.622 2.415 4.795 1.452 1.177 3.305 1.66 5.217 1.375 1.062-.163 2.078.1 2.865.736.786.635 1.253 1.573 1.314 2.638.109 1.92.967 3.623 2.417 4.796a6.53 6.53 0 0 0 4.144 1.455c.354 0 .711-.028 1.07-.08a1.5 1.5 0 1 0-.45-2.965zm58.545 12.223l-2.667 5.441-5.97 1.141 2.667-5.442 5.97-1.14zm-11.296 8.61l9.646-1.843 4.31-8.794-9.647 1.842-4.309 8.794zm193.224-9.825l-2.207-11.823 10.815 5.336 2.208 11.82-10.816-5.333zM253.25 132.6l3.566 19.105 17.477 8.619-3.567-19.103-17.476-8.62zm-121.164 63.035a3.346 3.346 0 0 1-3.02 1.871 3.324 3.324 0 0 1-1.48-.345 3.35 3.35 0 1 1 2.97-6.009 3.33 3.33 0 0 1 1.697 1.926c.288.848.23 1.755-.167 2.557zm-.867-5.823a4.863 4.863 0 0 0-6.508 2.203 4.837 4.837 0 0 0 2.212 6.486 4.864 4.864 0 0 0 6.508-2.206 4.835 4.835 0 0 0-2.212-6.483zm35.85-184.507c-3.245-5.027-9.99-6.485-15.035-3.255l1.535 2.38c3.73-2.393 8.714-1.313 11.114 2.405 2.398 3.716 1.315 8.685-2.415 11.075l1.536 2.378c5.045-3.234 6.51-9.955 3.266-14.983z"/>
</svg>
