<svg xmlns="http://www.w3.org/2000/svg" width="316" height="200" viewBox="0 0 316 200">
    <defs>
        <linearGradient id="a" x1="1.989%" y1="98.011%" y2="0%">
            <stop offset="0%" stop-color="#00CCE9"/>
            <stop offset="100%" stop-color="#78E6FF"/>
        </linearGradient>
    </defs>
    <path fill="url(#a)" fill-rule="evenodd" d="M1207.311 681.204l2.169 2.193 8.79-8.995 8.842 8.945 2.157-2.206-11.01-11.141-10.948 11.204zm48.663 156.105l-1.934-7.765c-.12-.485-.635-.782-1.135-.668-.506.116-.818.603-.698 1.088l1.935 7.765c.103.414.49.692.915.692.073 0 .146-.008.219-.025.506-.115.818-.602.698-1.087zm-296.724 9.41c-1.08.171-2.109-.106-2.906-.771-.795-.664-1.266-1.644-1.327-2.762-.113-2.009-.985-3.79-2.457-5.017-1.47-1.228-3.345-1.734-5.28-1.436-1.076.17-2.11-.104-2.908-.77-.795-.665-1.265-1.644-1.326-2.76-.046-.865-.76-1.52-1.607-1.479-.84.048-1.483.79-1.437 1.653.11 2.008.978 3.79 2.448 5.018 1.471 1.232 3.349 1.736 5.288 1.439 1.075-.17 2.105.105 2.902.77.797.665 1.27 1.645 1.333 2.76.11 2.008.98 3.79 2.45 5.018a6.49 6.49 0 0 0 4.2 1.522c.357 0 .72-.028 1.085-.084.832-.131 1.404-.93 1.277-1.787-.126-.855-.904-1.448-1.735-1.314zm209.936-29.343c-.434.05-.748.475-.7.947.06.61-.101 1.185-.454 1.617a1.83 1.83 0 0 1-1.42.683 3.354 3.354 0 0 0-2.584 1.264c-.651.8-.95 1.845-.842 2.943.06.611-.1 1.187-.454 1.62a1.829 1.829 0 0 1-1.42.681c-.436.006-.785.397-.78.871.006.471.358.85.79.85h.01a3.343 3.343 0 0 0 2.583-1.262c.652-.8.952-1.846.843-2.944-.06-.61.1-1.184.453-1.618a1.837 1.837 0 0 1 1.421-.685 3.346 3.346 0 0 0 2.583-1.262c.652-.8.951-1.846.841-2.944-.046-.472-.437-.824-.87-.761zm40.39 41.23l-2.265-12.53 11.1 5.655 2.266 12.527-11.101-5.653zm-7.038-18.271l3.721 20.443 18.236 9.222-3.722-20.44-18.235-9.225zm-42.07-156.683a4.287 4.287 0 0 1-4.964 3.509 4.31 4.31 0 0 1-3.501-4.976 4.286 4.286 0 0 1 4.965-3.51 4.311 4.311 0 0 1 3.5 4.977zm-3.174-6.861a6.214 6.214 0 0 0-1.065-.092 6.212 6.212 0 0 0-6.107 5.16c-.584 3.384 1.678 6.602 5.056 7.189a6.21 6.21 0 0 0 7.17-5.069c.585-3.384-1.678-6.603-5.054-7.188zm-67.409 47.653l1.573 2.51c3.824-2.524 8.934-1.384 11.395 2.538 2.459 3.92 1.348 9.162-2.475 11.684l1.574 2.508c5.173-3.412 6.675-10.501 3.348-15.807-3.327-5.302-10.243-6.84-15.415-3.433z" transform="translate(-940 -670)"/>
</svg>
