<svg xmlns="http://www.w3.org/2000/svg" width="185" height="160" viewBox="0 0 185 160">
    <defs>
        <linearGradient id="a" x1="1.989%" y1="98.011%" y2="0%">
            <stop offset="0%" stop-color="#00CCE9"/>
            <stop offset="100%" stop-color="#78E6FF"/>
        </linearGradient>
    </defs>
    <path fill="url(#a)" fill-rule="evenodd" d="M1206.326 481.822c-.79.27-1.602.206-2.29-.177-.682-.383-1.164-1.041-1.354-1.856-.345-1.463-1.232-2.66-2.498-3.366-1.267-.706-2.745-.832-4.16-.35-.79.27-1.602.204-2.287-.177-.685-.384-1.166-1.042-1.356-1.856a1.166 1.166 0 0 0-1.4-.872 1.173 1.173 0 0 0-.867 1.41c.342 1.464 1.227 2.66 2.492 3.367 1.267.71 2.744.834 4.164.351.789-.269 1.6-.204 2.284.178.687.383 1.17 1.042 1.361 1.855.342 1.464 1.227 2.658 2.491 3.365a5 5 0 0 0 2.448.64c.57 0 1.148-.096 1.716-.289.61-.207.937-.873.731-1.486a1.167 1.167 0 0 0-1.475-.737zm-153.813 2.469c-.6.038-1.056.557-1.018 1.162.048.783-.207 1.506-.718 2.035-.509.53-1.211.8-1.994.78-1.386-.03-2.681.471-3.623 1.449-.942.978-1.414 2.29-1.328 3.698.049.782-.205 1.503-.716 2.033a2.548 2.548 0 0 1-1.993.78 1.097 1.097 0 0 0-.07 2.192l.171.003c1.33 0 2.552-.511 3.456-1.448.942-.98 1.413-2.292 1.325-3.697-.048-.782.207-1.504.718-2.035.51-.53 1.22-.822 1.992-.782 1.385.04 2.683-.47 3.625-1.446.943-.977 1.415-2.292 1.328-3.698a1.086 1.086 0 0 0-1.155-1.026zm19.066-45.355c-1.624-.962-3.48-1.192-5.22-.646-1.744.545-3.146 1.793-3.945 3.514-.445.957-1.209 1.646-2.153 1.942-.943.294-1.96.164-2.863-.37-1.623-.959-3.478-1.19-5.221-.646-1.744.545-3.144 1.793-3.944 3.516-.342.74-.025 1.62.71 1.965.2.094.412.14.62.14.553 0 1.083-.316 1.332-.854.444-.958 1.209-1.648 2.153-1.944.942-.292 1.956-.16 2.862.373 1.625.96 3.481 1.19 5.223.643 1.743-.546 3.142-1.792 3.94-3.51.446-.959 1.212-1.65 2.156-1.945.942-.296 1.958-.163 2.86.372.699.411 1.6.18 2.01-.526a1.484 1.484 0 0 0-.52-2.024zm145.147 152.474l-.957-6.955 6.1 3.402.957 6.954-6.1-3.401zm6.727-4.646l-9.858-5.498 1.547 11.237L1225 598l-1.547-11.236zm-120.562-27.551a4.958 4.958 0 0 1-3.936 1.927 4.926 4.926 0 0 1-3.076-1.072c-2.168-1.71-2.55-4.877-.851-7.06a4.96 4.96 0 0 1 3.936-1.925c1.125 0 2.189.37 3.077 1.07a5.004 5.004 0 0 1 1.877 3.353 5.019 5.019 0 0 1-1.027 3.707zm.524-8.824a7.168 7.168 0 0 0-4.45-1.55 7.198 7.198 0 0 0-5.69 2.786c-2.46 3.162-1.912 7.732 1.23 10.208a7.157 7.157 0 0 0 4.45 1.55 7.193 7.193 0 0 0 5.69-2.787c2.46-3.16 1.909-7.73-1.23-10.207z" transform="translate(-1040 -438)"/>
</svg>
