<svg xmlns="http://www.w3.org/2000/svg" width="16" height="16" viewBox="0 0 16 16">
    <path fill="#949A9D" fill-rule="evenodd" d="M8 0C3.582 0 0 3.672 0 8.203c0 3.624 2.292 6.698 5.471 7.783.4.075.547-.178.547-.395 0-.195-.007-.711-.012-1.395-2.225.495-2.695-1.1-2.695-1.1-.363-.947-.888-1.2-.888-1.2-.726-.509.055-.498.055-.498.803.057 1.225.845 1.225.845.714 1.253 1.873.891 2.329.681.073-.53.28-.891.508-1.096-1.777-.207-3.644-.91-3.644-4.054 0-.896.312-1.628.824-2.201-.083-.208-.357-1.042.078-2.171 0 0 .672-.22 2.2.84A7.502 7.502 0 0 1 8 3.967a7.51 7.51 0 0 1 2.004.277c1.526-1.061 2.197-.841 2.197-.841.436 1.13.162 1.963.08 2.17.512.574.822 1.306.822 2.202 0 3.15-1.87 3.844-3.652 4.047.287.254.543.754.543 1.52 0 1.096-.01 1.98-.01 2.25 0 .219.143.474.55.394C13.71 14.898 16 11.825 16 8.203 16 3.673 12.418 0 8 0"/>
</svg>
