<svg xmlns="http://www.w3.org/2000/svg" xmlns:xlink="http://www.w3.org/1999/xlink" width="24" height="24" viewBox="0 0 24 24">
    <defs>
        <path id="a" d="M8 16A8 8 0 1 1 8 0a8 8 0 0 1 0 16zm2.77-6.338L9.108 8l1.662-1.662A.783.783 0 1 0 9.662 5.23L8 6.892 6.337 5.23A.783.783 0 1 0 5.23 6.338L6.891 8 5.23 9.662a.784.784 0 0 0 1.108 1.108L8 9.108l1.662 1.662a.781.781 0 0 0 1.108 0 .783.783 0 0 0 0-1.108z"/>
    </defs>
    <g fill="none" fill-rule="evenodd" transform="translate(4 4)">
        <mask id="b" fill="#fff">
            <use xlink:href="#a"/>
        </mask>
        <use fill="#676B6D" xlink:href="#a"/>
        <g fill="#2B2F33" mask="url(#b)">
            <path d="M-4-4h24v24H-4z"/>
        </g>
    </g>
</svg>
