<svg xmlns="http://www.w3.org/2000/svg" xmlns:xlink="http://www.w3.org/1999/xlink" width="24" height="24" viewBox="0 0 24 24">
    <defs>
        <path id="a" d="M8 0C3.564 0 0 3.564 0 8s3.564 8 8 8 8-3.564 8-8-3.564-8-8-8zm4.618 5.49L6.8 11.528a.33.33 0 0 1-.255.11c-.109 0-.218-.037-.254-.11L3.455 8.473 3.382 8.4a.393.393 0 0 1-.11-.255c0-.072.037-.181.11-.254l.509-.51a.352.352 0 0 1 .509 0l.036.037 2 2.146a.176.176 0 0 0 .255 0l4.873-5.055h.036a.352.352 0 0 1 .51 0l.508.51c.146.108.146.326 0 .472z"/>
    </defs>
    <g fill="none" fill-rule="evenodd" transform="translate(4 4)">
        <mask id="b" fill="#fff">
            <use xlink:href="#a"/>
        </mask>
        <use fill="#000" fill-rule="nonzero" xlink:href="#a"/>
        <g fill="#2B2F33" mask="url(#b)">
            <path d="M-4-4h24v24H-4z"/>
        </g>
    </g>
</svg>
