<svg xmlns="http://www.w3.org/2000/svg" width="113" height="32" viewBox="0 0 113 32">
    <defs>
        <linearGradient id="a" x1="50%" x2="50%" y1="0%" y2="100%">
            <stop offset="0%" stop-color="#00CCE9"/>
            <stop offset="39.017%" stop-color="#1D6DCC"/>
            <stop offset="100%" stop-color="#04A"/>
        </linearGradient>
        <linearGradient id="b" x1="50%" x2="50%" y1="0%" y2="100%">
            <stop offset="0%" stop-color="#2A90FF"/>
            <stop offset="33.333%" stop-color="#1D6DCC"/>
            <stop offset="100%" stop-color="#04A"/>
        </linearGradient>
        <linearGradient id="c" x1="4.561%" x2="83.221%" y1="47.147%" y2="47.147%">
            <stop offset="0%" stop-color="#003CC1"/>
            <stop offset="100%" stop-color="#001B8A"/>
        </linearGradient>
    </defs>
    <g fill="none" fill-rule="evenodd">
        <path fill="url(#a)" d="M5.257 31.573C2.366 31.573 0 29.155 0 26.198V5.53C0 2.574 2.366.155 5.257.155c2.89 0 5.257 2.419 5.257 5.375v20.668c0 2.957-2.366 5.375-5.257 5.375"/>
        <path fill="url(#b)" d="M19.346 25.02l-1.465-1.497c-1.865-1.908-1.865-5 0-6.908l.774-.792a3.6 3.6 0 0 0 0-5.01 5.347 5.347 0 0 0-7.682 0l-.518.53v14.854c0 .74-.148 1.445-.415 2.089l1.623 1.66a5.347 5.347 0 0 0 7.683 0 3.539 3.539 0 0 0 0-4.925"/>
        <path fill="url(#c)" d="M10.49 26.101v-14.99L5.968 15.91c-2.059 2.185-2.063 5.724-.012 7.914l-1.679 1.782h3.357l4.033 4.278-1.58-1.675c.26-.649.405-1.362.405-2.108"/>
        <text fill="#484C4F" font-size="24" font-weight="300" letter-spacing="-.01">
            <tspan x="38" y="29">Design</tspan>
        </text>
        <path fill="#D6D6D6" d="M29.5 4a.5.5 0 0 1 .5.5v27a.5.5 0 1 1-1 0v-27a.5.5 0 0 1 .5-.5z"/>
    </g>
</svg>
