<svg xmlns="http://www.w3.org/2000/svg" width="16" height="16" viewBox="0 0 16 16">
    <g fill="none" fill-rule="evenodd">
        <rect width="16" height="16" fill="#949A9D" rx="1"/>
        <path fill="#FFF" d="M3.252 6.207h1.95v6.792h-1.95V6.207zm.925-.85h-.014C3.457 5.357 3 4.837 3 4.18 3 3.509 3.471 3 4.19 3c.72 0 1.162.508 1.176 1.178 0 .658-.456 1.179-1.189 1.179zM13 13h-2.21V9.484c0-.92-.346-1.547-1.106-1.547-.582 0-.905.423-1.055.832-.057.146-.048.35-.048.555V13H6.39s.029-6.227 0-6.793h2.19v1.066c.13-.466.829-1.132 1.945-1.132 1.386 0 2.474.978 2.474 3.081V13z"/>
    </g>
</svg>
