<?xml version="1.0" encoding="UTF-8"?>
<svg width="370px" height="356px" viewBox="0 0 370 356" version="1.1" xmlns="http://www.w3.org/2000/svg" xmlns:xlink="http://www.w3.org/1999/xlink">
    <!-- Generator: Sketch 52.3 (67297) - http://www.bohemiancoding.com/sketch -->
    <title>illustration/main</title>
    <desc>Created with Sketch.</desc>
    <defs>
        <linearGradient x1="50%" y1="0%" x2="50%" y2="100%" id="linearGradient-1">
            <stop stop-color="#FFFFFF" offset="0%"></stop>
            <stop stop-color="#4DA3FF" offset="100%"></stop>
        </linearGradient>
        <linearGradient x1="50%" y1="0%" x2="50%" y2="111.029201%" id="linearGradient-2">
            <stop stop-color="#FFFFFF" offset="0%"></stop>
            <stop stop-color="#4DA3FF" offset="100%"></stop>
        </linearGradient>
        <linearGradient x1="67.5711615%" y1="100%" x2="67.5711615%" y2="0%" id="linearGradient-3">
            <stop stop-color="#003E80" offset="0%"></stop>
            <stop stop-color="#006FE6" offset="100%"></stop>
        </linearGradient>
        <linearGradient x1="100%" y1="0%" x2="0%" y2="100%" id="linearGradient-4">
            <stop stop-color="#00CCE9" offset="0%"></stop>
            <stop stop-color="#1D6DCC" offset="39.0166614%"></stop>
            <stop stop-color="#0044AA" offset="100%"></stop>
        </linearGradient>
        <linearGradient x1="0%" y1="47.1469522%" x2="100%" y2="47.1469522%" id="linearGradient-5">
            <stop stop-color="#003CC1" offset="0%"></stop>
            <stop stop-color="#001B8A" offset="100%"></stop>
        </linearGradient>
        <linearGradient x1="50%" y1="0%" x2="50%" y2="100%" id="linearGradient-6">
            <stop stop-color="#2A90FF" offset="0%"></stop>
            <stop stop-color="#1D6DCC" offset="33.3325985%"></stop>
            <stop stop-color="#0044AA" offset="100%"></stop>
        </linearGradient>
    </defs>
    <g id="illustration/main" stroke="none" stroke-width="1" fill="none" fill-rule="evenodd">
        <g id="aksara-illustration">
            <g id="decoration" transform="translate(0.000000, 162.000000)">
                <path d="M21.794753,129.624724 C21.8778656,119.407138 26.0434601,109.798823 34.2915365,100.79978 C45.8267568,88.2141825 63.7385773,86.5502142 70.4412045,90.2617291 C65.3278114,82.721886 67.0877279,64.3126064 76.2487323,51.8595626 C91.0056812,31.7995702 111.27284,35.1904699 116.38348,35.8880358 C116.591131,33.6868092 117.481904,27.9041365 121.277818,21.535326 C125.629433,14.2307665 134.797516,4.78960043 153.756241,1.28561555 C174.911027,-2.62348781 188.821643,3.12107565 196.766634,8.6266275 C203.781523,13.4872208 207.453555,18.9086836 208.667995,20.9359329 C212.670773,17.9733487 232.669324,4.71545298 254.47813,17.4091653 C264.300627,23.1263895 269.672797,30.8675492 272.58423,38.0772497 C280.586246,35.6390827 286.849189,38.4682843 289.435381,39.9996984 C289.435381,39.9996984 310.075367,31.4615572 322.306295,49.7643793 C334.538403,68.0667872 324.538931,83.2081939 324.538931,83.2081939 C324.538931,83.2081939 341.539134,83.6845602 356.034947,101.450124 C377.247545,127.44854 367.988615,153.900954 367.988615,153.900954 L0,153.900954 C3.24674479,139.874584 10.4619644,132.861398 21.6456588,132.861398" id="bg-1" fill="url(#linearGradient-1)"></path>
                <path d="M43.7853707,126.816147 C56.6098435,118.927278 67.9998302,131.263761 67.9998302,131.263761 C67.9998302,131.263761 68.6762071,119.989576 78.1567426,116.8887 C87.6372781,113.787296 92.1992776,123.342701 92.1992776,123.342701 C92.1992776,123.342701 87.1794102,92.5101997 108.155017,76.1213631 C130.819898,58.4121739 152.488978,83.8070604 152.488978,83.8070604 C152.488978,83.8070604 175.14677,56.6105418 206.815553,69.4383316 C215.458332,72.9397461 221.948965,78.4987365 226.802866,84.5590598 C258.259812,69.8684224 277.086192,78.362585 284.292817,83.2714258 C290.052862,76.7963155 299.066356,71.8357583 312.873285,74.9155255 C346.785121,82.4803752 342.879482,117.204276 342.879482,117.204276 C342.879482,117.204276 354.990882,110.302768 364.483927,122.228159 C373.97739,134.153022 368.336607,154 368.336607,154 L32.0213335,154 C32.0213335,154 30.9613149,134.705016 43.7853707,126.816147" id="bg-2" fill="url(#linearGradient-2)"></path>
                <path d="M0,154 C0.549241572,155.33367 2.48595054,157.472601 8.7981554,159.736587 C21.011813,164.116372 50.6982986,160.815811 53.6010039,168.903126 C56.7708266,177.732815 33.3725354,175.243298 33.6409391,185.553396 C33.8690394,194.318027 49.7820385,193.998525 67.7187847,193.998525 L268.78965,193.998525 C283.316468,193.998525 280.687312,186.357935 278.630979,182.879551 C275.644236,177.829677 276.957528,173.168701 290.028706,172.524636 C302.71743,171.900088 312.010374,171.363006 318.934848,171.363006 C337.402828,171.363006 333.77852,160.791957 348.167277,160.791957 C356.131065,160.791957 365.474175,157.811621 368,154 L0,154 Z" id="floor" fill-opacity="0.15" fill="#4DA3FF"></path>
                <path d="M335.592675,63.497167 C329.804324,36.0590545 340.657483,27.2328085 354.223932,45.844675 C367.790381,64.2646667 340.838369,88.0571559 335.592675,63.497167 Z" id="Shape" fill="#4DA3FF" fill-rule="nonzero"></path>
            </g>
            <path d="M261.97729,1.13686838e-13 C246.525859,1.13686838e-13 234,13.0525472 234,29.1536802 C234,39.4648765 237.239476,47.8580676 244.984768,53.0596979 C246.27474,56.7639496 245.64019,60.8995512 243.30613,64 C243.30613,64 251.522619,62.2354351 253.36323,56.9263965 C256.147725,57.8527963 259.054338,58.3187703 261.97729,58.3073603 L333.949085,58.3840806 C349.395788,58.3421641 361.919179,45.3264403 362,29.2304004 C361.959478,13.0924437 349.406438,0.0252924185 333.919636,0 L261.97729,1.13686838e-13 Z" id="bubble" fill="url(#linearGradient-3)" fill-rule="nonzero"></path>
            <rect id="Rectangle" fill="#4DA3FF" fill-rule="nonzero" x="258" y="24" width="48" height="8" rx="4"></rect>
            <rect id="Rectangle-Copy" fill="#4DA3FF" fill-rule="nonzero" x="314" y="24" width="24" height="8" rx="4"></rect>
            <g id="logo/aksara" transform="translate(70.000000, 72.000000)">
                <g id="icon">
                    <path d="M144.639786,6.07310081 C164.674848,17.8365982 171.687119,44.0002389 160.066784,64.4849498 L78.924785,206.661013 C67.3044495,226.942905 41.4592203,234.041567 21.2238083,222.27807 C1.18874697,210.514572 -5.8235245,184.350932 5.79681109,163.866221 L86.9388096,21.6901577 C98.5591452,1.40826565 124.404374,-5.69039656 144.639786,6.07310081 Z" id="Shape" fill="url(#linearGradient-4)"></path>
                    <path d="M102.165456,166.097229 L150.850655,80.7104634 L97.9580933,80.7104634 C97.9580933,80.7104634 97.7577427,80.7104634 97.7577427,80.7104634 C74.7174222,80.9132824 55.8844645,99.7754419 55.8844645,123.099618 C55.8844645,123.099618 55.8844645,123.302437 55.8844645,123.302437 C55.8844645,123.302437 55.8844645,123.302437 55.8844645,123.302437 C55.8844645,124.316531 55.8844645,124.316531 55.8844645,123.302437 C55.8844645,124.722169 55.8844645,126.141902 56.0848151,127.358815 C56.8862175,136.282848 60.4925286,144.395604 65.9019952,150.88581 L51.0760498,165.89441 L102.165456,166.097229 Z" id="Shape" fill="url(#linearGradient-5)"></path>
                    <path d="M233.99616,163.866221 L199.936556,104.034639 C192.924284,90.2429527 178.699391,80.5076445 162.27064,80.5076445 L150.850655,80.5076445 L102.165456,166.097229 L112.383338,166.097229 C112.784039,166.097229 112.984389,166.097229 113.385091,166.097229 C128.812088,166.097229 142.43593,174.615624 149.848902,187.190397 C154.056265,194.694697 158.063277,201.59054 160.868186,206.661013 C172.488522,226.942905 198.333751,234.041567 218.569163,222.27807 C238.604224,210.514572 245.416145,184.350932 233.99616,163.866221 Z" id="Shape" fill="url(#linearGradient-6)"></path>
                </g>
            </g>
        </g>
    </g>
</svg>