<svg xmlns="http://www.w3.org/2000/svg" width="16" height="16" viewBox="0 0 16 16">
    <g fill="none" fill-rule="evenodd">
        <path fill="#949A9D" d="M0 0h16v16H0z"/>
        <path fill="#FFF" fill-rule="nonzero" d="M3.818 5.351A.416.416 0 0 0 3.683 5L2.679 3.79v-.18h3.116l2.409 5.283 2.118-5.283h2.97v.18l-.858.824a.25.25 0 0 0-.095.24V10.9a.25.25 0 0 0 .095.241l.838.823v.18H9.057v-.18l.868-.843c.085-.085.085-.11.085-.24V5.992l-2.413 6.13H7.27l-2.81-6.13v4.109a.567.567 0 0 0 .155.471l1.13 1.37v.18H2.543v-.18l1.129-1.37c.12-.125.174-.3.145-.471V5.35z"/>
    </g>
</svg>
